<svg width="266" height="102" viewBox="0 0 266 102" xmlns="http://www.w3.org/2000/svg" xmlns:xlink="http://www.w3.org/1999/xlink"><title>Group 4</title><defs><path id="a" d="M68.604 39.286V0H0v78.572h68.604z"/><path id="c" d="M0 .71v85.926h57.073V.71z"/><path id="e" d="M59.987.535V59.7H.09V.534h59.897z"/></defs><g fill="none" fill-rule="evenodd"><g><mask id="b" fill="#fff"><use xlink:href="#a"/></mask><path d="M0 0l68.604 39.272C45.21 52.674 23.09 65.346 0 78.572V0z" fill="#221F20" mask="url(#b)"/></g><g transform="translate(110.36 14.427)"><mask id="d" fill="#fff"><use xlink:href="#c"/></mask><path d="M27.845 45.693c8.453.166 13.858-5.75 14.166-15.502.284-8.92-5.825-15.786-14.06-15.806-7.773-.02-13.675 6.527-13.927 15.45-.257 9.067 5.52 15.696 13.822 15.86zM15.02 86.636H0V2.276C5.617 2.66 11.29.1 16.374 4.827c14.18-6.883 25.166-5.186 33.87 5.48 8.852 10.85 9.132 27.945.642 39.168-8.114 10.728-19.692 12.677-35.865 5.646v31.514z" fill="#221F20" mask="url(#d)"/></g><g transform="translate(205.944 14.427)"><mask id="f" fill="#fff"><use xlink:href="#e"/></mask><path d="M15.137 30.316c.08 8.378 6.732 15.126 14.936 15.147 7.993.023 14.788-7.032 14.77-15.333-.017-8.644-6.33-14.91-14.936-14.832-8.614.078-14.85 6.42-14.77 15.018M.09 29.926C.167 13.343 13.818.262 30.76.54c16.324.264 29.38 13.51 29.226 29.65-.16 16.704-13.11 29.483-29.91 29.51C12.773 59.724.007 47.054.09 29.924" fill="#221F20" mask="url(#f)"/></g><path d="M187.632 72.247H172.78V16.093c4.95.622 9.826 1.302 14.722 1.797 1.102.112 2.355-.23 3.395-.685 7.86-3.46 12.177-3.044 19.77 2.268-2.056 4.172-4.148 8.412-6.337 12.85-1.007-.38-1.732-.555-2.362-.903-6.62-3.65-12.46-1.64-13.388 5.61-1.063 8.312-.72 16.802-.934 25.216-.083 3.206-.014 6.416-.014 10" fill="#221F20"/></g></svg>