<svg width="26" height="26" viewBox="0 0 26 26" xmlns="http://www.w3.org/2000/svg" xmlns:xlink="http://www.w3.org/1999/xlink"><title>boton-de-reproduccion copy 3</title><defs><path id="a" d="M.004 26H26V0H.004z"/></defs><g fill="none" fill-rule="evenodd"><mask id="b" fill="#fff"><use xlink:href="#a"/></mask><path d="M18.21 12.544L11.043 7.64c-.223-.164-.817-.164-.865.457v9.806c.053.62.658.63.865.456l7.17-4.904c.184-.11.44-.567 0-.912zm-6.924 4.314V9.142L16.916 13l-5.63 3.858z" fill="#FFD300" mask="url(#b)"/><path d="M13 0C5.832 0 0 5.832 0 13s5.832 13 13 13 13-5.832 13-13S20.168 0 13 0zm0 24.89C6.442 24.89 1.11 19.56 1.11 13 1.11 6.442 6.44 1.11 13 1.11c6.558 0 11.89 5.332 11.89 11.89 0 6.558-5.332 11.89-11.89 11.89z" fill="#FFD300" mask="url(#b)"/></g></svg>