<?xml version="1.0" encoding="UTF-8" standalone="no"?>
<svg width="266px" height="102px" viewBox="0 0 266 102" version="1.1" xmlns="http://www.w3.org/2000/svg" xmlns:xlink="http://www.w3.org/1999/xlink">
    <!-- Generator: Sketch 44.1 (41455) - http://www.bohemiancoding.com/sketch -->
    <title>Group 4</title>
    <desc>Created with Sketch.</desc>
    <defs>
        <polygon id="path-1" points="68.6044965 39.2863127 68.6044965 0.00050244998 0 0.00050244998 0 39.2863127 0 78.5721229 68.6044965 78.5721229"></polygon>
        <polygon id="path-3" points="0 0.711303521 0 86.6355322 57.0726137 86.6355322 57.0726137 0.711303521"></polygon>
        <polygon id="path-5" points="59.9867799 0.535277514 59.9867799 59.699205 0.0898230507 59.699205 0.0898230507 0.535277514 59.9867799 0.535277514"></polygon>
    </defs>
    <g id="PROFESOR" stroke="none" stroke-width="1" fill="none" fill-rule="evenodd">
        <g id="Artboard" transform="translate(-1333.000000, -1185.000000)">
            <g id="Group-4" transform="translate(1333.000000, 1185.000000)">
                <g id="Page-1">
                    <mask id="mask-2" fill="white">
                        <use xlink:href="#path-1"></use>
                    </mask>
                    <g id="Clip-2"></g>
                    <path d="M0,-1.42108547e-14 C23.1623894,13.2586501 45.2041955,25.8771788 68.6044965,39.2724953 C45.2111929,52.6738412 23.0904162,65.3456296 0,78.5721229 L0,-1.42108547e-14 Z" id="Fill-1" fill="#221F20" mask="url(#mask-2)"></path>
                </g>
                <g id="Page-1" transform="translate(110.358974, 13.806452)">
                    <g id="Group-3" transform="translate(0.000000, 0.620428)">
                        <mask id="mask-4" fill="white">
                            <use xlink:href="#path-3"></use>
                        </mask>
                        <g id="Clip-2"></g>
                        <path d="M27.8452848,45.6925711 C36.2975912,45.858912 41.7028243,39.9434142 42.0105624,30.1905245 C42.2938213,21.2704944 36.1845208,14.4043122 27.9501955,14.3835196 C20.1774774,14.3650373 14.2745013,20.9112443 14.0227156,29.8335847 C13.7662672,38.9014733 19.5421847,45.5296956 27.8452848,45.6925711 L27.8452848,45.6925711 Z M15.020533,86.6355322 L-0.000349702376,86.6355322 L-0.000349702376,2.27528921 C5.61703613,2.65995251 11.2892087,0.101306221 16.3738812,4.82815977 C30.5554782,-2.05534959 41.5396298,-0.358441509 50.243722,10.3081679 C59.0958548,21.1584453 59.3756167,38.253437 50.8860087,49.4756711 C42.7717479,60.2035032 31.1942679,62.153388 15.020533,55.1220201 L15.020533,86.6355322 Z" id="Fill-1" fill="#221F20" mask="url(#mask-4)"></path>
                    </g>
                    <g id="Group-6" transform="translate(95.585316, 0.620428)">
                        <mask id="mask-6" fill="white">
                            <use xlink:href="#path-5"></use>
                        </mask>
                        <g id="Clip-5"></g>
                        <path d="M15.1367508,30.3157422 C15.2160166,38.6940093 21.8685215,45.4423667 30.0725392,45.4631593 C38.0655699,45.4862622 44.8614527,38.4306362 44.8428019,30.1297639 C44.8264825,21.4858135 38.5143546,15.2191516 29.9070134,15.2977014 C21.2926783,15.3762513 15.0574849,21.7179976 15.1367508,30.3157422 M0.0902232129,29.9253032 C0.167157736,13.3443511 13.8183728,0.263488586 30.7591216,0.539568253 C47.0843941,0.80409647 60.1411152,14.0501448 59.9860804,30.1909866 C59.826383,46.894384 46.8745727,59.6725985 30.0772019,59.6991669 C12.771597,59.7245801 0.00746031735,47.0549491 0.0902232129,29.9253032" id="Fill-4" fill="#221F20" mask="url(#mask-6)"></path>
                    </g>
                    <path d="M77.2725683,58.4408674 L62.4207084,58.4408674 L62.4207084,2.28695617 C67.3713284,2.90842421 72.2473451,3.58880464 77.1431784,4.08320672 C78.2447409,4.19525579 79.4978411,3.854488 80.5376228,3.39820571 C88.3989322,-0.0602985716 92.7154252,0.354398502 100.308629,5.66691059 C98.2523795,9.83813937 96.1599936,14.0786768 93.9708567,18.5167441 C92.9637139,18.1378566 92.2386643,17.9611194 91.6092,17.6134207 C84.9904997,13.9631623 79.15047,15.9731147 78.2214274,23.2239602 C77.1583322,31.5352289 77.4998748,40.025545 77.2865564,48.4396215 C77.2037935,51.645149 77.2725683,54.8552971 77.2725683,58.4408674" id="Fill-7" fill="#221F20"></path>
                </g>
            </g>
        </g>
    </g>
</svg>