<?xml version="1.0" encoding="UTF-8" standalone="no"?>
<svg width="26px" height="26px" viewBox="0 0 26 26" version="1.1" xmlns="http://www.w3.org/2000/svg" xmlns:xlink="http://www.w3.org/1999/xlink">
    <!-- Generator: Sketch 44.1 (41455) - http://www.bohemiancoding.com/sketch -->
    <title>boton-de-reproduccion copy 3</title>
    <desc>Created with Sketch.</desc>
    <defs>
        <polygon id="path-1" points="0.00397959184 26 26 26 26 0 0.00397959184 0"></polygon>
    </defs>
    <g id="USER-ALUMNO" stroke="none" stroke-width="1" fill="none" fill-rule="evenodd">
        <g id="boton-de-reproduccion-copy-3">
            <mask id="mask-2" fill="white">
                <use xlink:href="#path-1"></use>
            </mask>
            <g id="Clip-2"></g>
            <path d="M18.2105459,12.5437398 L11.0420408,7.64075 C10.81925,7.4762602 10.224898,7.4762602 10.1772092,8.0970102 L10.1772092,17.9029898 C10.2300714,18.5237398 10.8350357,18.534352 11.0420408,18.35925 L18.2105459,13.4562602 C18.3962602,13.3448316 18.6509541,12.8885714 18.2105459,12.5437398 Z M11.2861224,16.857551 L11.2861224,9.14244898 L16.915852,13 L11.2861224,16.857551 Z" id="Fill-1" fill="#BFBFBF" mask="url(#mask-2)"></path>
            <path d="M13,0 C5.83156122,0 0,5.83156122 0,13 C0,20.1684388 5.83156122,26 13,26 C20.1684388,26 26,20.1684388 26,13 C26,5.83156122 20.1684388,0 13,0 Z M13,24.8910867 C6.44169898,24.8910867 1.10891327,19.558301 1.10891327,13 C1.10891327,6.44169898 6.44169898,1.10891327 13,1.10891327 C19.558301,1.10891327 24.8910867,6.44169898 24.8910867,13 C24.8910867,19.558301 19.558301,24.8910867 13,24.8910867 Z" id="Fill-3" fill="#BFBFBF" mask="url(#mask-2)"></path>
        </g>
    </g>
</svg>